<svg width="24" height="24" xmlns="http://www.w3.org/2000/svg">
  <mask id="a" mask-type="alpha" maskUnits="userSpaceOnUse" x="0" y="0" width="24" height="24">
    <path fill="#fff" d="M0 0h24v24H0z" />
  </mask>
  <g mask="url(#a)" fill-rule="evenodd" clip-rule="evenodd">
    <path opacity=".3"
      d="M21-6H3a1 1 0 0 0-1 1v6a1 1 0 0 0 1 1h18a1 1 0 0 0 1-1v-6a1 1 0 0 0-1-1zM3-8a3 3 0 0 0-3 3v6a3 3 0 0 0 3 3h18a3 3 0 0 0 3-3v-6a3 3 0 0 0-3-3H3zM21 22H3a1 1 0 0 0-1 1v6a1 1 0 0 0 1 1h18a1 1 0 0 0 1-1v-6a1 1 0 0 0-1-1zM3 20a3 3 0 0 0-3 3v6a3 3 0 0 0 3 3h18a3 3 0 0 0 3-3v-6a3 3 0 0 0-3-3H3z" />
    <path
      d="M21 8H3a1 1 0 0 0-1 1v6a1 1 0 0 0 1 1h18a1 1 0 0 0 1-1V9a1 1 0 0 0-1-1zM3 6a3 3 0 0 0-3 3v6a3 3 0 0 0 3 3h18a3 3 0 0 0 3-3V9a3 3 0 0 0-3-3H3z" />
  </g>
</svg>