<svg width="24" height="24" xmlns="http://www.w3.org/2000/svg">
  <mask id="a" mask-type="alpha" maskUnits="userSpaceOnUse" x="0" y="0" width="24" height="24">
    <path fill="#fff" d="M0 0h24v24H0z" />
  </mask>
  <g mask="url(#a)" fill-rule="evenodd" clip-rule="evenodd">
    <path opacity=".3"
      d="M12 21a9 9 0 1 0 0-18 9 9 0 0 0 0 18zm11-9c0 6.075-4.925 11-11 11S1 18.075 1 12 5.925 1 12 1s11 4.925 11 11z" />
    <path
      d="M10.556 12.946a2 2 0 0 0 2.829 0l8.653-8.653a1 1 0 1 1 1.414 1.414L12.674 16.485a1 1 0 0 1-1.482-.075l-3.9-3.899a1 1 0 1 1 1.415-1.414l1.849 1.85z" />
  </g>
</svg>